<svg id="Layer_1" data-name="Layer 1" xmlns="http://www.w3.org/2000/svg" viewBox="0 0 88.57 87.32"><defs><style>.cls-1,.cls-2{fill:#fff;}.cls-1{opacity:0.45;}.cls-3{fill:#070707;}</style></defs><rect class="cls-1" width="88.57" height="87.32" rx="25.42"/><path d="M49.05,38h.21c.13,0,.34,0,.6,0a10.88,10.88,0,0,1,2.26.37l.36.11.38.12.39.15.41.16a13,13,0,0,1,1.7.91,11.86,11.86,0,0,1,3.31,3.2,12.2,12.2,0,0,1,1.25,2.35,11.64,11.64,0,0,1,.7,2.76c0,.12,0,.24,0,.37l0,.37c0,.12,0,.25,0,.37v.76c0,.12,0,.25,0,.38s0,.51-.07.77a10.5,10.5,0,0,1-.31,1.54c-.06.26-.15.51-.23.77s-.09.25-.14.37l-.07.19-.08.19a11.77,11.77,0,0,1-1.7,2.81l-.27.32-.29.31-.14.16-.16.14-.3.3a12.39,12.39,0,0,1-1.34,1.05,11.69,11.69,0,0,1-13.08,0,11.34,11.34,0,0,1-1.34-1.06l-.3-.29-.15-.14-.15-.16-.29-.31L40,57.07a11.93,11.93,0,0,1-1.69-2.81l-.08-.19-.08-.19c0-.12-.09-.25-.14-.37s-.17-.51-.23-.77a12,12,0,0,1-.31-1.54c0-.26-.06-.51-.07-.77s0-.25,0-.38,0-.25,0-.38v-.38l0-.37,0-.37c0-.12,0-.25,0-.37a11.19,11.19,0,0,1,.71-2.76,11.65,11.65,0,0,1,1.24-2.35,12,12,0,0,1,3.31-3.2,13,13,0,0,1,1.7-.91l.41-.16.39-.15.38-.12.36-.11a10.88,10.88,0,0,1,2.26-.37c.26,0,.47,0,.6,0Zm0,0h-.21c-.13,0-.33,0-.6,0a11,11,0,0,0-2.24.39l-.36.1-.38.13-.39.14-.4.17a10.72,10.72,0,0,0-1.68.91,11.53,11.53,0,0,0-3.25,3.22,11.86,11.86,0,0,0-1.19,2.33,11.5,11.5,0,0,0-.65,2.72c0,.12,0,.24,0,.37l0,.36v.55a1.21,1.21,0,0,0,0,.19V50c0,.12,0,.25,0,.37s.05.5.08.75a11.16,11.16,0,0,0,.33,1.5c.07.25.16.49.24.74s.09.24.14.37l.07.18.09.18a11.15,11.15,0,0,0,1.69,2.71A12.44,12.44,0,0,0,41.43,58a14.12,14.12,0,0,0,1.3,1,12.8,12.8,0,0,0,1.45.81,12.25,12.25,0,0,0,1.56.6,11.28,11.28,0,0,0,1.63.36,10.92,10.92,0,0,0,3.36,0,11.28,11.28,0,0,0,1.63-.36,12.25,12.25,0,0,0,1.56-.6A11.49,11.49,0,0,0,55.37,59a11.11,11.11,0,0,0,2.43-2.17,11.51,11.51,0,0,0,1.7-2.71l.08-.18.07-.18c.05-.13.1-.25.14-.37s.17-.49.24-.74a11.16,11.16,0,0,0,.33-1.5c0-.25.06-.5.08-.75s0-.25,0-.37,0-.25,0-.37a1.21,1.21,0,0,0,0-.19V49.3c0-.13,0-.25,0-.37s0-.24,0-.36,0-.25,0-.37a11.5,11.5,0,0,0-.65-2.72,11.86,11.86,0,0,0-1.19-2.33,11.53,11.53,0,0,0-3.25-3.22A10.72,10.72,0,0,0,53.63,39l-.4-.17-.39-.14-.38-.13-.36-.1a11,11,0,0,0-2.24-.39c-.26,0-.47,0-.6,0Z" transform="translate(-5.72 -6.34)"/><path d="M62.06,49.59v.23c0,.16,0,.39,0,.69a12.79,12.79,0,0,1-.44,2.57c0,.14-.07.28-.11.42l-.15.43c0,.15-.11.3-.17.45s-.11.31-.18.46a13.23,13.23,0,0,1-1,1.94,13.38,13.38,0,0,1-3.66,3.76A13,13,0,0,1,53.61,62a12.81,12.81,0,0,1-3.14.8l-.42.05-.43,0-.42,0h-.86l-.44,0c-.29,0-.58-.06-.87-.09a13.36,13.36,0,0,1-1.76-.35c-.29-.07-.57-.18-.86-.27L44,62l-.22-.08-.21-.09a13.55,13.55,0,0,1-3.2-1.94L40,59.55l-.35-.32-.18-.17-.16-.17c-.11-.12-.23-.23-.33-.35A13.59,13.59,0,0,1,37.77,57l-.27-.41c-.09-.14-.16-.28-.25-.42L37.13,56,37,55.76c-.08-.15-.16-.29-.23-.44a14.44,14.44,0,0,1-.71-1.83,14.15,14.15,0,0,1-.43-1.93l-.07-.49c0-.16,0-.33,0-.49a4.19,4.19,0,0,1,0-.5v-1a2.09,2.09,0,0,1,0-.25l0-.25,0-.25a2.11,2.11,0,0,1,0-.25l.07-.49a14.15,14.15,0,0,1,.43-1.93,15,15,0,0,1,.71-1.83,12.83,12.83,0,0,1,1-1.69A13.7,13.7,0,0,1,39,40.63c.1-.12.22-.23.33-.34l.17-.18.17-.16.35-.33.36-.3a13.22,13.22,0,0,1,3.2-1.94l.21-.09L44,37.2l.43-.16c.29-.09.57-.19.86-.26A13.4,13.4,0,0,1,47,36.42c.29,0,.58-.07.87-.08l.44,0h.43a1.61,1.61,0,0,1,.22,0h.21l.42,0,.42,0,.43,0a13.27,13.27,0,0,1,3.14.8,13.36,13.36,0,0,1,6.33,5.19,13.15,13.15,0,0,1,1,1.93c.07.16.12.31.18.46s.12.3.17.45l.15.43c0,.15.08.29.11.42A12.79,12.79,0,0,1,62,48.66c0,.3,0,.53,0,.69v.24Zm0,0v-.24c0-.15,0-.38,0-.68a12.6,12.6,0,0,0-.44-2.56l-.12-.42c-.05-.14-.09-.28-.14-.43s-.11-.29-.17-.44-.12-.31-.19-.46a12.58,12.58,0,0,0-1-1.92,13.27,13.27,0,0,0-3.67-3.7,12.82,12.82,0,0,0-5.77-2.11l-.41,0-.42,0H48.35l-.43,0c-.28,0-.57.06-.86.1a12.58,12.58,0,0,0-1.7.37c-.29.07-.57.18-.85.27l-.42.16-.21.08-.2.1a12.67,12.67,0,0,0-3.09,1.93,13.57,13.57,0,0,0-1.34,1.29,16.85,16.85,0,0,0-1.15,1.49A14,14,0,0,0,37.17,44a13.61,13.61,0,0,0-.68,1.78,13.16,13.16,0,0,0-.42,1.86,13.17,13.17,0,0,0,0,3.83,12.86,12.86,0,0,0,.42,1.86,13.61,13.61,0,0,0,.68,1.78,14,14,0,0,0,.93,1.65,14.35,14.35,0,0,0,1.15,1.49,14.93,14.93,0,0,0,1.34,1.3,13.31,13.31,0,0,0,3.09,1.93l.2.09.21.08.42.16c.28.1.56.2.85.28a12.58,12.58,0,0,0,1.7.37c.29,0,.58.08.86.09s.28,0,.43,0h1.26l.42,0,.41,0a13.09,13.09,0,0,0,3.11-.74,13.6,13.6,0,0,0,2.66-1.37,13.13,13.13,0,0,0,3.67-3.7,12.13,12.13,0,0,0,1-1.92c.07-.15.13-.3.19-.45s.12-.3.17-.45l.14-.43.12-.41A12.72,12.72,0,0,0,62,50.51c0-.3,0-.53,0-.69v-.23Z" transform="translate(-5.72 -6.34)"/><path d="M49,32.57h.93l.27,0a16.37,16.37,0,0,1,3.34.57l.55.15.56.19c.19.06.38.14.58.22l.6.24a16.32,16.32,0,0,1,2.51,1.35A17.27,17.27,0,0,1,65,43.56c.07.15.12.32.18.48s.11.32.16.49l.15.5.08.25.06.26.12.51c0,.17.07.35.11.52l0,.27,0,.13,0,.13c0,.18.05.36.07.54s0,.36.06.54,0,.37,0,.55,0,.37,0,.55v1.11c0,.19,0,.38,0,.57,0,.38-.07.76-.11,1.13a16.34,16.34,0,0,1-.47,2.27c-.09.38-.23.75-.35,1.12-.06.19-.14.37-.21.56l-.1.27-.12.28a17.4,17.4,0,0,1-2.52,4.12l-.4.47c-.13.16-.28.31-.42.46l-.21.22-.23.22-.22.21a2.29,2.29,0,0,1-.23.21l-.47.42-.48.39-.25.19-.25.19-.26.18-.26.18-.53.34-.54.32-.27.16-.28.15-.28.14-.29.14-.58.26c-.19.09-.39.16-.59.24l-.29.12-.3.1-.3.1-.31.1-.61.18-.62.14-.31.08-.32,0-.63.11-.63.08-.32,0-.32,0-.32,0H48l-.32,0-.32,0-.32,0-.64-.08-.63-.11-.31,0-.31-.08c-.21-.05-.42-.09-.62-.15l-.62-.17-.3-.1-.3-.1-.3-.1-.3-.12-.59-.24-.57-.26-.29-.14L41,65l-.28-.14-.27-.16-.55-.32-.53-.34-.25-.18-.26-.19-.25-.18-.25-.19-.49-.4-.46-.41a2.29,2.29,0,0,1-.23-.21l-.23-.21-.22-.22-.21-.22c-.14-.16-.29-.3-.42-.46l-.4-.47a17.4,17.4,0,0,1-2.52-4.12l-.12-.28L32.94,56l-.21-.56c-.12-.37-.25-.74-.34-1.12a16.34,16.34,0,0,1-.47-2.27c0-.37-.1-.75-.11-1.13,0-.19,0-.37,0-.56v-.56a2.62,2.62,0,0,1,0-.28v-.28l0-.55c0-.18,0-.36.05-.55s0-.36.05-.54L32,47.1,32,47l0-.13.05-.27c0-.17.06-.35.1-.52l.13-.51.06-.26.08-.25c0-.17.09-.34.14-.5s.12-.33.17-.49.11-.32.18-.48a17,17,0,0,1,1.83-3.47,17.23,17.23,0,0,1,4.87-4.76A16.88,16.88,0,0,1,42.14,34l.6-.24c.2-.08.39-.16.58-.22l.56-.19.54-.15a16.37,16.37,0,0,1,3.34-.57l.28,0H49Zm0,0H48l-.27,0a16.19,16.19,0,0,0-3.33.57l-.54.16-.56.18c-.19.06-.38.14-.58.22s-.4.15-.6.25a16.64,16.64,0,0,0-2.49,1.35,17.56,17.56,0,0,0-2.52,2,16.88,16.88,0,0,0-2.29,2.75,17.08,17.08,0,0,0-1.78,3.46l-.17.48c0,.16-.11.32-.16.48l-.14.5-.07.25-.06.25-.12.51c0,.17-.06.35-.09.52l-.05.26,0,.13,0,.13c0,.18,0,.36-.07.53s0,.36,0,.54,0,.36,0,.54v.82c0,.09,0,.18,0,.28v.55c0,.18,0,.37,0,.55,0,.37.08.74.12,1.12a17.66,17.66,0,0,0,.49,2.22c.09.37.23.73.35,1.1l.21.54.11.27.12.27a17.1,17.1,0,0,0,2.51,4l.39.45.42.44.21.22.22.21.22.21.22.21.46.4.48.38.24.18.25.18.25.18.26.17.52.33c.17.11.35.21.53.31l.27.16.27.14.28.14.27.13.57.26.57.23.29.11.3.1.29.1c.1,0,.2.07.3.09l.6.17c.2.06.4.1.6.15l.31.07.3,0c.21,0,.41.08.62.1a16.35,16.35,0,0,0,5,0c.21,0,.41-.07.61-.1l.31,0,.3-.07c.21,0,.41-.09.61-.15l.6-.17c.1,0,.2-.06.3-.09l.29-.1.29-.1.29-.11.58-.23.56-.26.28-.13.28-.14.27-.14.27-.16c.18-.1.36-.2.53-.31l.52-.33a2.2,2.2,0,0,0,.25-.17l.25-.18.25-.18.24-.18c.16-.13.33-.25.48-.39l.46-.39L60.5,62l.22-.21.22-.21.21-.22c.14-.14.28-.29.41-.44l.4-.45a17.1,17.1,0,0,0,2.51-4l.12-.27.1-.27c.08-.18.15-.36.22-.54.12-.37.25-.73.35-1.1a16,16,0,0,0,.48-2.22c.05-.38.11-.75.13-1.12,0-.18,0-.37,0-.55s0-.37,0-.55v-.55c0-.19,0-.37,0-.55s0-.36,0-.54a4.93,4.93,0,0,0,0-.54l-.06-.53,0-.13,0-.13,0-.26c0-.17-.06-.35-.1-.52l-.11-.51-.06-.25-.07-.25c0-.17-.1-.33-.14-.5s-.11-.32-.17-.48-.1-.32-.16-.48a17.61,17.61,0,0,0-1.78-3.46,17,17,0,0,0-4.81-4.77A16.24,16.24,0,0,0,55.76,34c-.2-.1-.4-.17-.59-.25s-.39-.16-.58-.22L54,33.39l-.54-.16a16.29,16.29,0,0,0-3.33-.57l-.27,0H49Z" transform="translate(-5.72 -6.34)"/><path d="M30.94,49.59v-.73a2.18,2.18,0,0,1,0-.25l0-.29a17.07,17.07,0,0,1,.59-3.54c.06-.19.11-.38.17-.58s.13-.39.2-.59a5.19,5.19,0,0,1,.23-.62c.08-.2.16-.42.26-.63a16.48,16.48,0,0,1,1.42-2.66,18.14,18.14,0,0,1,8.72-7.1l.51-.19.52-.18.53-.15L44.4,32l.27-.07.55-.13.55-.11.28-.05.14,0,.14,0,.57-.07a5.7,5.7,0,0,1,.58-.06l.58-.05.58,0h1.18c.2,0,.4,0,.6,0,.4,0,.8.08,1.2.12A18.62,18.62,0,0,1,54,32c.4.1.79.24,1.18.37l.59.22.29.11.29.13a18.44,18.44,0,0,1,4.37,2.67l.49.42c.17.14.32.3.48.45l.24.22.23.24.23.24a2.61,2.61,0,0,1,.22.24l.44.49.41.52.21.26.19.27.2.27c.06.09.13.18.18.27l.37.56c.12.19.22.38.34.57l.16.29.16.3.15.3c0,.1.11.2.15.3l.28.61c.09.21.16.42.25.62l.12.32.11.32.11.31c0,.11.07.22.1.33l.19.64c.06.22.1.44.15.66l.08.33.06.33c0,.22.08.45.11.67l.09.67c0,.11,0,.22,0,.34l0,.33,0,.34c0,.11,0,.23,0,.34l0,.69,0,.66c0,.11,0,.22,0,.33l0,.34,0,.34a1.87,1.87,0,0,1,0,.34l-.09.67c0,.23-.07.45-.11.67l-.06.33-.08.33c-.05.22-.09.44-.15.66l-.19.65c0,.11-.07.21-.1.32l-.11.32-.11.32-.12.31c-.09.21-.16.42-.25.62l-.28.61q-.07.16-.15.3l-.15.3-.16.3c0,.1-.11.19-.17.29l-.33.57-.37.56a2.61,2.61,0,0,1-.19.27l-.19.27-.19.27-.21.26-.41.52-.44.49c-.07.09-.15.17-.22.25l-.23.23-.23.24-.24.22c-.16.15-.31.31-.48.45l-.49.42a18.31,18.31,0,0,1-4.37,2.67l-.29.13-.29.11-.59.22c-.39.13-.78.27-1.18.37a18.62,18.62,0,0,1-2.4.5c-.4,0-.8.1-1.2.12-.2,0-.4,0-.6,0H48.64l-.58,0-.58-.05a5.67,5.67,0,0,1-.58,0l-.56-.08-.15,0-.14,0-.28,0-.55-.11-.54-.13-.28-.07-.26-.08-.53-.15-.52-.18a5.27,5.27,0,0,1-.51-.19,18.19,18.19,0,0,1-8.72-7.09,17,17,0,0,1-1.42-2.67c-.1-.21-.18-.42-.26-.63a5.19,5.19,0,0,1-.23-.62l-.2-.59-.17-.57A17.28,17.28,0,0,1,31,50.86l0-.3a2.18,2.18,0,0,1,0-.25c0-.16,0-.29,0-.4v-.32Zm0,0v.72c0,.08,0,.16,0,.25l0,.29a17.31,17.31,0,0,0,.61,3.53l.16.57.2.59c.07.21.15.41.23.62s.16.42.26.63a18.26,18.26,0,0,0,3.58,5.31A17.52,17.52,0,0,0,39,64.53a18.28,18.28,0,0,0,3.66,1.88c.17.07.34.12.51.18l.51.17.53.15.26.07.27.07.54.12.55.1.28,0,.14,0,.14,0,.56.07a5.48,5.48,0,0,0,.57,0l.57,0,.58,0h.58l.58,0c.2,0,.39,0,.59,0,.39,0,.78-.08,1.18-.13a17.6,17.6,0,0,0,2.35-.51c.4-.1.78-.25,1.17-.37l.57-.23.29-.11.28-.13a17.87,17.87,0,0,0,4.26-2.66l.48-.42.47-.44a2.39,2.39,0,0,0,.23-.22L61.9,62l.22-.24a2.39,2.39,0,0,0,.22-.23l.43-.49.4-.51.2-.25.19-.27.18-.26.19-.27.35-.55.33-.56.16-.29.15-.29.15-.29a2.75,2.75,0,0,0,.14-.3l.27-.59c.09-.2.16-.41.24-.61s.09-.21.12-.31l.11-.31.1-.31a2,2,0,0,0,.1-.32l.18-.63c.06-.21.1-.43.16-.64l.07-.32.06-.33c0-.22.08-.43.11-.65a18.37,18.37,0,0,0,0-5.27c0-.22-.08-.43-.11-.65L66.56,46l-.08-.33c0-.21-.09-.43-.15-.64l-.18-.63c0-.11-.06-.21-.1-.32l-.1-.31-.11-.31c0-.1-.08-.2-.12-.3s-.15-.41-.24-.61l-.27-.6c0-.1-.09-.2-.14-.3l-.15-.29-.15-.29c0-.1-.11-.19-.16-.28l-.33-.57-.35-.55a2.48,2.48,0,0,0-.19-.26l-.18-.27-.19-.26-.2-.26-.4-.51-.43-.48a2.5,2.5,0,0,0-.22-.24l-.22-.24-.22-.23-.23-.22L61,36.24l-.48-.42a17.87,17.87,0,0,0-4.26-2.66L56,33l-.29-.11-.57-.22c-.39-.13-.77-.28-1.17-.38a17.27,17.27,0,0,0-2.35-.51c-.4,0-.79-.11-1.18-.13l-.59,0-.58,0H48.07l-.57,0-.57.06-.56.07h-.14l-.14,0-.28,0-.55.1-.54.12-.27.07-.26.07-.53.15-.51.17-.51.18A18.81,18.81,0,0,0,39,34.64a18.55,18.55,0,0,0-2.91,2.43,18.28,18.28,0,0,0-2.14,2.67,17.82,17.82,0,0,0-1.44,2.64c-.1.21-.18.43-.26.63s-.16.41-.23.62l-.2.59-.16.57A17.42,17.42,0,0,0,31,48.32l0,.29c0,.09,0,.18,0,.25v.73Z" transform="translate(-5.72 -6.34)"/><path d="M49,27.26h.41l.5,0h.31l.37,0a21.48,21.48,0,0,1,4.41.75l.72.2.74.25c.26.08.51.19.77.29s.53.2.79.32a21.77,21.77,0,0,1,3.32,1.79,22.24,22.24,0,0,1,3.36,2.66,22.6,22.6,0,0,1,5.47,8.22c.09.21.16.42.24.64s.15.42.22.64l.19.66.1.33c0,.12.05.23.08.34s.11.45.16.68.09.46.14.69l.06.35,0,.17,0,.18.09.71c0,.23,0,.47.07.71s0,.48.06.73l0,.72c0,.13,0,.25,0,.37v.37c0,.24,0,.49,0,.73s0,.5,0,.75c0,.5-.1,1-.16,1.49a20.77,20.77,0,0,1-.62,3c-.12.5-.3,1-.46,1.48-.09.25-.19.49-.28.73l-.14.37-.16.35a22.75,22.75,0,0,1-3.32,5.43c-.18.2-.36.41-.53.62s-.37.39-.56.59l-.28.3-.29.28-.3.28a4,4,0,0,1-.3.28l-.62.54c-.2.18-.42.34-.64.52l-.32.25-.33.24-.34.24-.34.24-.7.45-.71.42-.36.21-.37.19-.37.19-.19.09a1.51,1.51,0,0,1-.18.09l-.76.35-.78.31-.39.15-.4.14L56,71.5l-.2.07-.2.06-.81.23-.4.1-.41.09-.41.1-.42.07-.41.08-.41.07-.84.1-.21,0h-.21l-.42,0-.42,0H49.8l-.85,0-.82,0h-.42l-.42,0-.43,0h-.21l-.21,0-.83-.11c-.14,0-.28,0-.41-.06l-.42-.08-.41-.07-.41-.1L43.55,72l-.41-.1-.8-.23-.2-.06-.2-.07-.4-.13-.39-.14-.39-.15L40,70.77l-.76-.35L39,70.33l-.18-.09-.37-.19-.37-.2-.36-.2L37,69.23l-.69-.45L36,68.54l-.34-.24-.33-.24L35,67.8c-.21-.17-.43-.33-.64-.51l-.62-.54-.3-.28-.29-.28-.29-.29c-.1-.09-.19-.19-.29-.29s-.37-.39-.55-.6l-.53-.61A22.75,22.75,0,0,1,28.17,59L28,58.61l-.14-.36c-.1-.24-.19-.49-.28-.73-.16-.49-.34-1-.46-1.48a22.27,22.27,0,0,1-.63-3c-.05-.5-.13-1-.15-1.49,0-.25,0-.5,0-.74l0-.74v-.74l0-.72.06-.72c0-.24,0-.49.08-.72l.09-.71,0-.18,0-.17.06-.35c0-.23.08-.46.14-.69l.16-.68c0-.11.05-.22.08-.34l.1-.33c.06-.22.13-.44.19-.66l.22-.64c.08-.22.14-.43.23-.64a23.44,23.44,0,0,1,2.4-4.59c.12-.17.25-.33.36-.5l.37-.5.37-.47c.13-.16.25-.32.38-.46.52-.6,1-1.18,1.6-1.7a22.24,22.24,0,0,1,3.36-2.66A21.77,21.77,0,0,1,40,29.13c.26-.12.53-.22.79-.32s.51-.21.77-.29l.74-.25.71-.2a21.66,21.66,0,0,1,4.42-.75l.36,0h.32l.5,0Zm0,0H47.74l-.36,0a21.4,21.4,0,0,0-4.4.75l-.72.21-.74.25c-.25.08-.5.18-.76.28s-.53.2-.79.33A21.15,21.15,0,0,0,36.67,31a23.47,23.47,0,0,0-3.33,2.67,22.47,22.47,0,0,0-3,3.64A23.1,23.1,0,0,0,28,41.86c-.09.21-.15.42-.23.64l-.21.64c-.06.21-.13.43-.19.65l-.09.33c0,.11,0,.23-.08.34l-.16.67c-.05.23-.08.46-.12.69l-.06.34,0,.18,0,.17-.09.7c0,.24,0,.47-.06.71s0,.48-.05.72l0,.72v.36c0,.12,0,.24,0,.36v.73c0,.25,0,.49.06.74,0,.49.1,1,.16,1.47A20.32,20.32,0,0,0,27.41,56c.12.49.3,1,.46,1.46.09.24.19.47.28.71l.15.36.16.35a22.39,22.39,0,0,0,3.31,5.32l.53.6c.17.2.36.39.55.59l.27.29.29.27.3.28a3.71,3.71,0,0,0,.29.27l.61.53.63.5.32.25.33.24.33.23c.12.08.22.16.34.23l.69.44.7.41.35.2.37.19.36.18.18.1.19.08.75.34.76.31.38.14.39.14.39.13.19.06.2.06.79.22a2.92,2.92,0,0,0,.4.1l.4.09.4.1.41.07.41.07.4.07.82.1.21,0h.2l.41,0,.41,0c.14,0,.28,0,.42,0l.82,0,.83,0c.14,0,.27,0,.41,0l.41,0,.41,0h.21l.2,0,.82-.1.41-.07.41-.07.4-.07.4-.1.4-.09a2.6,2.6,0,0,0,.4-.1l.8-.22.19-.06.2-.06.39-.14.39-.13.38-.15c.25-.1.51-.19.76-.3l.75-.34.18-.08.18-.1.37-.18.36-.19.36-.2.7-.41.69-.44.33-.23L62,68l.33-.24a3.92,3.92,0,0,0,.32-.25c.21-.17.43-.33.63-.5l.61-.53a3.85,3.85,0,0,0,.3-.27l.29-.28.29-.27.28-.29.55-.59.52-.6a22.43,22.43,0,0,0,3.32-5.32l.16-.35.14-.36c.1-.24.19-.47.28-.71.16-.49.34-1,.47-1.46A23.39,23.39,0,0,0,71.16,53c.06-.49.13-1,.16-1.47,0-.25,0-.49.05-.73s0-.49,0-.74,0-.24,0-.36v-.36c0-.24,0-.48,0-.72s0-.48-.05-.72,0-.47-.07-.71l-.09-.7,0-.17,0-.18-.06-.34c0-.23-.08-.46-.13-.69l-.15-.67c0-.11,0-.23-.08-.34l-.1-.33-.18-.65c-.07-.22-.15-.43-.22-.64s-.13-.43-.22-.64a22.61,22.61,0,0,0-2.35-4.57,21.93,21.93,0,0,0-3-3.64A23.47,23.47,0,0,0,61.26,31,21.61,21.61,0,0,0,58,29.19c-.27-.13-.53-.22-.79-.33s-.51-.2-.77-.28l-.74-.25L55,28.12a21.51,21.51,0,0,0-4.4-.75l-.37,0H49Z" transform="translate(-5.72 -6.34)"/><path d="M73.69,49.59V50c0,.15,0,.33,0,.55s0,.22,0,.35,0,.26,0,.4a23.27,23.27,0,0,1-.82,4.85c-.07.26-.15.52-.22.79s-.18.54-.28.81-.2.56-.31.85-.22.58-.36.87a23.39,23.39,0,0,1-2,3.65,25.45,25.45,0,0,1-2.93,3.69c-.58.6-1.2,1.18-1.86,1.75l-.51.42c-.18.13-.35.27-.52.41l-.55.4c-.18.13-.36.27-.55.39a25.14,25.14,0,0,1-5,2.64l-.17.07-.18.06L57,73.1c-.23.08-.47.17-.71.24l-.72.22-.37.1-.37.09-.74.18-.38.08-.38.07-.38.07-.2,0-.19,0-.78.1c-.26,0-.52.06-.78.08l-.8.07-.8,0-.4,0H47.79l-.41,0-.41,0c-.55,0-1.09-.11-1.64-.17a25,25,0,0,1-3.27-.69c-.55-.14-1.08-.33-1.63-.51l-.8-.3-.4-.16-.39-.17a25.23,25.23,0,0,1-6-3.66l-.67-.58c-.23-.2-.44-.41-.66-.61l-.32-.31L30.92,67l-.31-.32-.31-.33c-.19-.23-.39-.46-.59-.68s-.19-.24-.28-.35l-.28-.36-.28-.35-.27-.37-.26-.37c-.09-.12-.18-.24-.26-.37l-.49-.77c-.09-.12-.16-.26-.24-.39l-.23-.39c-.07-.13-.15-.26-.22-.4l-.21-.4-.21-.41-.11-.2a2,2,0,0,0-.1-.21l-.37-.83c-.13-.28-.23-.57-.35-.85s-.11-.29-.16-.43l-.15-.44-.15-.43L25,57.08a1.87,1.87,0,0,1-.07-.22L24.7,56c-.05-.14-.07-.29-.11-.44l-.11-.45-.1-.45-.08-.45-.08-.46c0-.15-.06-.3-.08-.45L24,52.35a1.81,1.81,0,0,1,0-.23l0-.23,0-.46,0-.46c0-.15,0-.31,0-.46l0-.93,0-.91c0-.16,0-.3,0-.46l0-.46,0-.47,0-.23a1.81,1.81,0,0,1,0-.23l.11-.91c0-.16.05-.31.08-.46L24.3,45l.08-.46.11-.45.1-.45c0-.14.06-.3.11-.44l.25-.89a1.87,1.87,0,0,1,.07-.22l.07-.22.15-.43.15-.44.16-.42c.12-.29.22-.57.35-.85s.25-.56.38-.84l.09-.21.11-.2.21-.4.21-.41c.07-.13.15-.26.22-.4l.23-.39c.08-.13.15-.27.24-.39s.33-.51.49-.76.17-.26.26-.38L28.6,35l.27-.36.28-.36.28-.35c.09-.12.18-.24.28-.35l.59-.68c.1-.12.21-.22.31-.33l.31-.33.31-.32.33-.31.65-.61.68-.58a25.13,25.13,0,0,1,6-3.65l.39-.18.4-.15.8-.31c.55-.17,1.08-.37,1.63-.51a25,25,0,0,1,3.27-.68c.55-.07,1.1-.15,1.64-.17l.82-.05.81,0h.8l.8,0,.79.06c.27,0,.53,0,.79.08l.78.1.19,0,.2,0,.38.07.38.07.38.07.74.18.37.09.37.11.72.21.71.24.35.12.18.07.17.06a25.83,25.83,0,0,1,5,2.64l.56.39.54.4.53.42.5.41c.67.58,1.29,1.15,1.87,1.76A24.42,24.42,0,0,1,69.67,36a23.77,23.77,0,0,1,2,3.64c.14.29.24.59.36.87s.22.57.31.85l.28.81.22.79a23.27,23.27,0,0,1,.82,4.85c0,.15,0,.28,0,.4s0,.25,0,.35,0,.4,0,.55v.45Zm0,0v-.45c0-.15,0-.33,0-.54s0-.23,0-.35l0-.4A24.13,24.13,0,0,0,72.75,43c-.08-.25-.15-.51-.23-.78l-.27-.81c-.09-.28-.21-.56-.32-.84s-.22-.58-.36-.87a22.89,22.89,0,0,0-2-3.63,24.73,24.73,0,0,0-2.93-3.66,24.54,24.54,0,0,0-9-5.92l-.17-.07-.18-.06-.35-.12-.7-.23-.72-.21-.36-.1-.37-.09L54,25.44l-.37-.07-.38-.07-.38-.07-.19,0-.19,0-.77-.1c-.26,0-.52,0-.78-.07s-.52-.05-.79-.06l-.79,0h-.8l-.8,0L47,25c-.54,0-1.08.11-1.62.18a24.51,24.51,0,0,0-3.23.7c-.54.14-1.07.34-1.6.52-.27.09-.53.2-.79.3l-.39.16L39,27a24.35,24.35,0,0,0-5.85,3.65l-.66.57-.64.6-.32.31-.3.32-.31.32-.3.33-.58.67c-.1.11-.18.23-.28.34l-.27.35-.28.35-.25.37-.26.36a3,3,0,0,0-.25.37l-.49.75c-.08.13-.15.26-.22.39l-.23.39c-.07.13-.15.25-.22.39l-.2.4-.21.4-.1.2c0,.06-.06.13-.1.2-.12.27-.24.55-.37.82s-.22.56-.33.84l-.17.42-.14.43L25.5,42l-.08.22-.06.22-.25.87c0,.14-.07.29-.11.44l-.1.44-.1.44-.08.44-.08.45c0,.15-.05.3-.07.45l-.11.9,0,.22,0,.23,0,.45,0,.45c0,.15,0,.31,0,.46l0,.91,0,.9c0,.15,0,.31,0,.46l0,.45,0,.45,0,.23,0,.22.11.9c0,.15.05.3.07.45l.08.45.08.44.1.45.11.44c0,.14.06.29.1.44l.25.87.06.21.08.22.14.43.14.42.17.42c.11.28.21.57.33.84s.25.55.37.82c0,.07.06.14.1.21l.1.2.21.4.2.4.22.39.23.38c.07.13.14.27.22.39s.32.5.49.75a3,3,0,0,0,.25.37l.26.37.25.36.28.35.27.35c.1.12.18.24.28.35l.58.67.3.32.31.32.3.32.32.31c.21.2.42.41.64.6l.66.58A25,25,0,0,0,39,72.14l.39.17.39.16.79.31c.53.17,1.06.37,1.6.51a24.51,24.51,0,0,0,3.23.7c.54.07,1.08.15,1.62.18l.81.06.8,0h.8l.79,0,.79,0c.26,0,.52,0,.78-.08l.77-.09.19,0,.19,0,.38-.07.38-.07.37-.07.75-.17.37-.09.36-.1.72-.2.7-.24.35-.12.18-.06.17-.07a24.8,24.8,0,0,0,5-2.58,25.52,25.52,0,0,0,4-3.33A24.8,24.8,0,0,0,69.6,63.1a22.89,22.89,0,0,0,2-3.63c.14-.28.25-.58.36-.86s.23-.57.32-.84l.27-.82c.08-.27.15-.53.23-.78a24.05,24.05,0,0,0,.83-4.84l0-.4c0-.13,0-.25,0-.35s0-.4,0-.55v-.44Z" transform="translate(-5.72 -6.34)"/><polygon class="cls-2" points="11.56 43.24 38.37 40.09 43.25 43.24 11.56 43.24"/><path d="M49.11,49.63H17.28v-.09L44.1,46.39h0ZM18,49.54H48.81l-4.73-3.06Z" transform="translate(-5.72 -6.34)"/><polygon class="cls-3" points="11.56 43.24 38.37 46.4 43.25 43.24 11.56 43.24"/><polygon class="cls-3" points="11.56 43.24 38.37 46.4 43.25 43.24 11.56 43.24"/><path d="M49.11,49.54l-5,3.25L17.28,49.63v-.09Zm-5,3.15,4.73-3.06H18Z" transform="translate(-5.72 -6.34)"/><polygon class="cls-2" points="43.25 74.93 46.4 48.12 43.25 43.24 43.25 74.93"/><path d="M52.16,54.45v0L49,81.27h-.09V49.44ZM49,80.52l3.06-26L49,49.73Z" transform="translate(-5.72 -6.34)"/><polygon class="cls-3" points="43.25 74.93 40.09 48.12 43.25 43.24 43.25 74.93"/><polygon class="cls-3" points="43.25 74.93 40.09 48.12 43.25 43.24 43.25 74.93"/><path d="M49,49.44V81.27h-.09L45.76,54.45h0Zm-.09,31.08V49.73l-3.07,4.74Z" transform="translate(-5.72 -6.34)"/><polygon class="cls-2" points="74.93 43.24 48.12 46.4 43.25 43.24 74.93 43.24"/><path d="M80.65,49.63,53.83,52.79h0l-5-3.24H80.65Zm-26.8,3.06L79.9,49.63H49.11Z" transform="translate(-5.72 -6.34)"/><polygon class="cls-3" points="74.93 43.24 48.12 40.09 43.25 43.24 74.93 43.24"/><polygon class="cls-3" points="74.93 43.24 48.12 40.09 43.25 43.24 74.93 43.24"/><path d="M80.65,49.54v.09H48.81l5-3.24h0Zm-31.54,0H79.9L53.85,46.48Z" transform="translate(-5.72 -6.34)"/><polygon class="cls-2" points="43.25 11.56 40.09 38.37 43.25 43.24 43.25 11.56"/><path d="M49,17.9V49.73l-3.25-5L48.92,17.9Zm-.09,31.54V18.65L45.85,44.7Z" transform="translate(-5.72 -6.34)"/><polygon class="cls-3" points="43.25 11.56 46.4 38.37 43.25 43.24 43.25 11.56"/><polygon class="cls-3" points="43.25 11.56 46.4 38.37 43.25 43.24 43.25 11.56"/><path d="M52.16,44.72h0l-3.23,5V17.9H49ZM49,49.44l3.06-4.74L49,18.65Z" transform="translate(-5.72 -6.34)"/><polygon class="cls-3" points="31.89 54.81 38.37 46.4 43.25 43.24 31.89 54.81"/><polygon class="cls-3" points="31.89 54.81 38.37 46.4 43.25 43.24 31.89 54.81"/><path d="M49.27,49.33,37.64,61.18l-.07-.06,6.49-8.41h0ZM38.08,60.6,48.65,49.84l-4.53,2.93Z" transform="translate(-5.72 -6.34)"/><polygon class="cls-2" points="31.89 54.81 40.09 48.12 43.25 43.24 31.89 54.81"/><path d="M49.23,49.25,45.84,54.5l-8.21,6.68-.06-.06Zm-3.45,5.18,2.91-4.51-10.5,10.7Z" transform="translate(-5.72 -6.34)"/><polygon class="cls-3" points="54.61 54.81 48.12 46.4 43.25 43.24 54.61 54.81"/><polygon class="cls-3" points="54.61 54.81 48.12 46.4 43.25 43.24 54.61 54.81"/><path d="M60.36,61.12l-.07.06L48.65,49.33l5.22,3.38ZM49.27,49.84,59.84,60.6l-6-7.83Z" transform="translate(-5.72 -6.34)"/><polygon class="cls-2" points="54.61 54.81 46.4 48.12 43.25 43.24 54.61 54.81"/><path d="M60.35,61.12l-.06.06-8.21-6.69-3.39-5.24Zm-8.2-6.69,7.59,6.19L49.23,49.92Z" transform="translate(-5.72 -6.34)"/><polygon class="cls-3" points="31.68 31.89 40.09 38.37 43.25 43.24 31.68 31.89"/><polygon class="cls-3" points="31.68 31.89 40.09 38.37 43.25 43.24 31.68 31.89"/><path d="M49.22,49.9,37.37,38.26l.06-.07,8.41,6.49h0ZM38,38.71,48.71,49.28l-2.93-4.54Z" transform="translate(-5.72 -6.34)"/><polygon class="cls-2" points="31.68 31.89 38.37 40.09 43.25 43.24 31.68 31.89"/><path d="M49.3,49.86l-5.25-3.4-6.68-8.21.06,0ZM44.12,46.4l4.5,2.92L37.93,38.81Z" transform="translate(-5.72 -6.34)"/><polygon class="cls-3" points="54.81 31.89 46.4 38.37 43.25 43.24 54.81 31.89"/><polygon class="cls-3" points="54.81 31.89 46.4 38.37 43.25 43.24 54.81 31.89"/><path d="M60.56,38.26,48.71,49.9l3.38-5.23,8.41-6.48Zm-11.35,11L60,38.71l-7.82,6Z" transform="translate(-5.72 -6.34)"/><polygon class="cls-2" points="54.81 31.89 48.12 40.09 43.25 43.24 54.81 31.89"/><path d="M60.56,38.25l-6.69,8.22-5.25,3.39L60.5,38.2ZM53.81,46.4,60,38.81,49.3,49.32Z" transform="translate(-5.72 -6.34)"/><path d="M28.53,42l.46.11.46.12.53.14c.18.05.37.08.53.14a1.57,1.57,0,0,1,.43.21l.17.11.12.1.1.09,0,0H31l-.2,0a1.74,1.74,0,0,1-.46-.12c-.17-.06-.33-.16-.5-.23l-.5-.23-.43-.21-.42-.22Z" transform="translate(-5.72 -6.34)"/><path d="M27.49,53.26l.45-.14L28.4,53l.53-.14c.18,0,.36-.11.53-.14a2.07,2.07,0,0,1,.48,0l.2,0,.15,0,.13,0v0l-.11.08-.14.07L30,53a1.92,1.92,0,0,1-.46.13c-.17,0-.36,0-.55.05l-.54,0-.48,0-.47,0Z" transform="translate(-5.72 -6.34)"/><path d="M28.46,56.93l.41-.21.43-.21.5-.23c.17-.07.34-.17.5-.24a2.18,2.18,0,0,1,.46-.11l.2,0h.29l0,0-.1.09-.12.1-.17.11a1.91,1.91,0,0,1-.43.21c-.16.06-.35.09-.53.14l-.53.14-.46.12-.46.11Z" transform="translate(-5.72 -6.34)"/><path d="M30,60.38l.38-.28.39-.28c.14-.1.29-.21.45-.31s.29-.23.44-.32a2.76,2.76,0,0,1,.44-.2l.19-.05.15,0,.14,0,0,0a.49.49,0,0,1-.08.12l-.1.11a1.85,1.85,0,0,1-.14.14,2.44,2.44,0,0,1-.39.28c-.15.09-.33.15-.5.23l-.5.23c-.15.08-.3.14-.43.2l-.43.18Z" transform="translate(-5.72 -6.34)"/><path d="M32.21,63.51l.32-.35.33-.34c.12-.13.26-.26.39-.39s.25-.28.38-.39a3.53,3.53,0,0,1,.4-.27l.18-.08.14-.06.14,0,0,0a.92.92,0,0,1-.07.13.66.66,0,0,1-.08.13l-.11.16a2.65,2.65,0,0,1-.33.35c-.14.11-.31.2-.46.31L33,63l-.39.26-.4.26Z" transform="translate(-5.72 -6.34)"/><path d="M34.88,66.2l.25-.39.27-.4.32-.45c.11-.15.2-.31.31-.45a2.61,2.61,0,0,1,.34-.33l.16-.12.14-.08.12-.06,0,0a.93.93,0,0,1,0,.13l-.06.15a1.5,1.5,0,0,1-.09.18,2,2,0,0,1-.26.39c-.12.14-.26.26-.39.39s-.27.27-.39.39-.24.24-.35.33-.34.32-.34.32Z" transform="translate(-5.72 -6.34)"/><path d="M38,68.4s.07-.18.18-.43.12-.28.2-.44l.23-.5c.08-.17.14-.35.23-.5a2.44,2.44,0,0,1,.28-.39,1.85,1.85,0,0,1,.14-.14l.11-.1.12-.08,0,0s0,0,0,.14,0,.09,0,.15a.82.82,0,0,1-.06.19,2,2,0,0,1-.19.44c-.09.15-.21.29-.32.45l-.31.45L38.3,68l-.29.38Z" transform="translate(-5.72 -6.34)"/><path d="M41.41,70s0-.18.11-.46l.11-.46c0-.17.1-.35.15-.53s.08-.37.13-.53a1.92,1.92,0,0,1,.22-.43.71.71,0,0,1,.11-.17.62.62,0,0,1,.09-.12l.1-.1,0,0a.79.79,0,0,1,0,.14v.15c0,.06,0,.12,0,.2a3.14,3.14,0,0,1-.12.46c-.06.16-.16.33-.24.5s-.15.34-.23.5-.14.3-.21.43-.21.41-.21.41Z" transform="translate(-5.72 -6.34)"/><path d="M45.07,71s0-.19,0-.47,0-.3,0-.48,0-.36,0-.54,0-.38,0-.55a2.5,2.5,0,0,1,.14-.46.75.75,0,0,1,.08-.18l.07-.14.08-.11h0l0,.14s0,.1,0,.15a1.27,1.27,0,0,1,0,.2,2,2,0,0,1,0,.48c0,.17-.1.35-.14.53s-.1.36-.14.53l-.14.46-.13.45Z" transform="translate(-5.72 -6.34)"/><path d="M52.64,71.06s-.06-.18-.14-.45l-.13-.46c0-.17-.09-.35-.14-.53s-.11-.36-.15-.53a2.75,2.75,0,0,1,0-.48c0-.07,0-.14,0-.2s0-.11,0-.15a.81.81,0,0,1,0-.14h0a.56.56,0,0,1,.08.11s0,.09.08.14l.08.18a2.53,2.53,0,0,1,.13.46c0,.17,0,.36,0,.55s0,.37,0,.54,0,.34,0,.48,0,.47,0,.47Z" transform="translate(-5.72 -6.34)"/><path d="M52.64,71.06s-.06-.18-.14-.45l-.13-.46c0-.17-.09-.35-.14-.53s-.11-.36-.15-.53a2.75,2.75,0,0,1,0-.48c0-.07,0-.14,0-.2s0-.11,0-.15a.81.81,0,0,1,0-.14h0a.56.56,0,0,1,.08.11s0,.09.08.14l.08.18a2.53,2.53,0,0,1,.13.46c0,.17,0,.36,0,.55s0,.37,0,.54,0,.34,0,.48,0,.47,0,.47Z" transform="translate(-5.72 -6.34)"/><path d="M56.31,70.09s-.09-.16-.21-.41-.14-.28-.21-.44-.15-.32-.23-.49-.18-.34-.24-.5a2.12,2.12,0,0,1-.11-.47,1.37,1.37,0,0,1,0-.19.92.92,0,0,1,0-.16.94.94,0,0,1,0-.14h0l.1.1.1.12.11.16a3.45,3.45,0,0,1,.21.43c.06.17.09.36.14.54s.1.36.14.53.08.33.12.46l.1.46Z" transform="translate(-5.72 -6.34)"/><path d="M59.76,68.51l-.28-.38c-.08-.11-.18-.24-.28-.39s-.21-.29-.32-.45-.23-.29-.32-.44a3.9,3.9,0,0,1-.19-.44,1.8,1.8,0,0,1,0-.19.49.49,0,0,1,0-.15.72.72,0,0,1,0-.14l0,0a.64.64,0,0,1,.11.09.53.53,0,0,1,.12.1l.14.14a3.29,3.29,0,0,1,.28.39c.08.15.14.33.23.5s.16.33.23.49l.2.44.18.43Z" transform="translate(-5.72 -6.34)"/><path d="M62.88,66.34s-.14-.12-.34-.32l-.35-.33-.38-.39c-.13-.13-.28-.25-.39-.38a2.56,2.56,0,0,1-.27-.4c0-.07-.06-.12-.09-.18A1.21,1.21,0,0,1,61,64.2a1.31,1.31,0,0,1,0-.14l0,0,.13.07.13.08.16.11a3.46,3.46,0,0,1,.35.33c.1.14.2.31.31.46l.31.45.27.39.26.4Z" transform="translate(-5.72 -6.34)"/><path d="M65.58,63.67l-.39-.25-.4-.27-.45-.32c-.15-.11-.32-.2-.45-.31a1.79,1.79,0,0,1-.33-.35.79.79,0,0,1-.12-.15l-.08-.14-.06-.12,0,0,.13,0,.15.06.17.09a1.81,1.81,0,0,1,.4.26c.13.12.25.26.39.39L65,63l.33.35.32.34Z" transform="translate(-5.72 -6.34)"/><path d="M67.77,60.57l-.43-.18-.44-.2L66.41,60c-.17-.08-.35-.14-.5-.23a2.44,2.44,0,0,1-.39-.28l-.14-.14-.1-.11a1,1,0,0,1-.09-.12l0,0h.14l.15,0,.19,0a2.76,2.76,0,0,1,.44.2c.15.09.29.21.44.32s.31.21.45.31l.39.28.38.28Z" transform="translate(-5.72 -6.34)"/><path d="M69.4,57.14,68.94,57l-.47-.11-.53-.15-.53-.13a2.16,2.16,0,0,1-.43-.22.91.91,0,0,1-.16-.11l-.12-.09-.1-.1v0h.3l.19,0a2.5,2.5,0,0,1,.47.12c.16.06.32.16.49.23l.5.24.43.2.42.22Z" transform="translate(-5.72 -6.34)"/><path d="M70.4,53.48l-.47,0-.48,0-.55-.05-.54,0a2.28,2.28,0,0,1-.46-.14.75.75,0,0,1-.18-.08L67.58,53,67.46,53v0l.14,0,.15,0,.2,0a2.11,2.11,0,0,1,.48,0c.17,0,.34.1.53.14l.53.14.46.14.45.13Z" transform="translate(-5.72 -6.34)"/><path d="M70.44,45.91l-.45.14-.46.13-.53.14-.53.15a2.8,2.8,0,0,1-.48,0l-.2,0-.15,0-.14,0v0l.12-.07.14-.08.18-.08a2.31,2.31,0,0,1,.46-.13,4.73,4.73,0,0,1,.54,0l.55,0,.48,0,.47,0Z" transform="translate(-5.72 -6.34)"/><path d="M69.47,42.24l-.42.21-.43.21-.5.23c-.17.08-.33.18-.49.24a2.42,2.42,0,0,1-.47.11l-.19,0h-.3v0l.1-.1.12-.1.16-.11a2.87,2.87,0,0,1,.43-.21c.17-.06.35-.09.53-.14l.53-.14L69,42.3l.46-.1Z" transform="translate(-5.72 -6.34)"/><path d="M67.88,38.79l-.37.28-.39.28c-.14.11-.3.21-.45.32s-.3.23-.45.32a3.25,3.25,0,0,1-.44.19l-.19,0a.4.4,0,0,1-.15,0l-.14,0,0,0,.08-.11.11-.12.14-.14a2.5,2.5,0,0,1,.38-.28l.5-.23.5-.23.44-.2.43-.18Z" transform="translate(-5.72 -6.34)"/><path d="M65.72,35.67,65.4,36l-.33.34-.39.39c-.14.13-.25.28-.39.39a1.88,1.88,0,0,1-.4.27l-.17.09-.15,0-.13,0,0,0,.06-.13.08-.13.12-.16a3.46,3.46,0,0,1,.33-.35c.14-.11.3-.2.45-.31s.31-.21.45-.31l.4-.27.39-.26Z" transform="translate(-5.72 -6.34)"/><path d="M63.05,33s-.1.16-.26.39-.17.26-.27.4l-.31.45c-.11.15-.2.32-.31.45a2.12,2.12,0,0,1-.35.33.83.83,0,0,1-.16.12l-.13.08-.13.06,0,0a.93.93,0,0,1,0-.13.77.77,0,0,1,.06-.15l.08-.17a2.35,2.35,0,0,1,.27-.4c.11-.13.26-.25.39-.39l.39-.39.34-.33.35-.32Z" transform="translate(-5.72 -6.34)"/><path d="M60,30.78l-.18.43-.2.43-.23.5c-.08.17-.15.35-.23.5a3.29,3.29,0,0,1-.28.39l-.14.14a.53.53,0,0,1-.12.1.37.37,0,0,1-.11.08l0,0a.72.72,0,0,1,0-.14.49.49,0,0,1,0-.15,1.8,1.8,0,0,1,.05-.19,3.9,3.9,0,0,1,.19-.44c.09-.15.22-.29.32-.44s.21-.31.32-.45.2-.28.28-.39l.28-.38Z" transform="translate(-5.72 -6.34)"/><path d="M56.52,29.15s0,.19-.11.46-.07.3-.12.47-.09.34-.14.52-.08.37-.14.54a2.15,2.15,0,0,1-.21.43l-.11.16a.63.63,0,0,1-.1.12.49.49,0,0,1-.09.1h0a.94.94,0,0,1,0-.14v-.16a1.37,1.37,0,0,1,0-.19,2.26,2.26,0,0,1,.11-.47c.07-.16.17-.32.24-.49s.15-.35.23-.5l.21-.43.21-.42Z" transform="translate(-5.72 -6.34)"/><path d="M52.85,28.15s0,.19,0,.47,0,.3,0,.48,0,.36,0,.55,0,.37,0,.54a2.31,2.31,0,0,1-.13.46l-.08.18a.87.87,0,0,1-.08.14l-.07.12h-.05l0-.14a.61.61,0,0,1,0-.15,1.23,1.23,0,0,1,0-.2,2.8,2.8,0,0,1,0-.48c0-.17.11-.34.15-.53s.09-.36.14-.53l.13-.46c.08-.27.14-.45.14-.45Z" transform="translate(-5.72 -6.34)"/><path d="M45.29,28.11s.06.18.13.45l.14.46c0,.17.09.35.14.53s.11.36.14.53a2.11,2.11,0,0,1,0,.48c0,.07,0,.14,0,.2s0,.11,0,.15a1,1,0,0,1,0,.14h0l-.08-.12-.07-.14a1.59,1.59,0,0,1-.08-.18,2.28,2.28,0,0,1-.14-.46c0-.17,0-.36,0-.54s0-.38-.05-.55,0-.34,0-.48,0-.47,0-.47Z" transform="translate(-5.72 -6.34)"/><path d="M41.61,29.08s.09.16.22.42l.21.43.23.5c.07.17.17.33.23.49a1.91,1.91,0,0,1,.12.47,1.37,1.37,0,0,1,0,.19v.16a.79.79,0,0,1,0,.14h0a.49.49,0,0,1-.09-.1.63.63,0,0,1-.1-.12l-.11-.16a1.72,1.72,0,0,1-.21-.43c-.06-.17-.09-.35-.14-.53s-.1-.36-.14-.53-.09-.33-.12-.47-.11-.46-.11-.46Z" transform="translate(-5.72 -6.34)"/><path d="M38.17,30.67l.28.37.28.39.31.45c.11.15.23.3.32.45a2.41,2.41,0,0,1,.2.44,1.33,1.33,0,0,1,0,.19l0,.15a1.25,1.25,0,0,1,0,.14l0,0-.12-.08-.11-.11a.92.92,0,0,1-.14-.14,2.06,2.06,0,0,1-.28-.39c-.09-.15-.15-.33-.23-.5s-.16-.33-.23-.49-.14-.31-.2-.44l-.18-.43Z" transform="translate(-5.72 -6.34)"/><path d="M35,32.83l.35.32.34.33.39.39c.13.14.28.25.39.39a2.35,2.35,0,0,1,.27.4l.08.17a.58.58,0,0,1,.06.15.93.93,0,0,1,0,.13l0,0-.12-.06L36.67,35a1.67,1.67,0,0,1-.16-.12,2.65,2.65,0,0,1-.35-.33c-.11-.14-.2-.3-.31-.45l-.32-.45c-.1-.15-.19-.28-.26-.4s-.26-.39-.26-.39Z" transform="translate(-5.72 -6.34)"/><path d="M32.35,35.5l.39.26.4.26.44.32c.16.11.32.2.46.31a2.65,2.65,0,0,1,.33.35l.11.16.09.13.06.13,0,0-.14,0-.14-.06-.18-.08a3.53,3.53,0,0,1-.4-.27c-.13-.11-.25-.26-.38-.39L33,36.22l-.33-.34-.32-.35Z" transform="translate(-5.72 -6.34)"/><path d="M30.15,38.6l.43.18L31,39l.5.23c.17.08.35.14.5.23a3.29,3.29,0,0,1,.39.28l.14.14.1.12.08.11,0,0-.14,0-.15,0-.19,0a2.41,2.41,0,0,1-.44-.2c-.15-.09-.29-.21-.45-.31l-.45-.32-.39-.28-.37-.28Z" transform="translate(-5.72 -6.34)"/><path d="M28.53,42l.46.11.46.12.53.14c.18.05.37.08.53.14a1.57,1.57,0,0,1,.43.21l.17.11.12.1.1.09,0,0H31l-.2,0a1.74,1.74,0,0,1-.46-.12c-.17-.06-.33-.16-.5-.23l-.5-.23-.43-.21-.42-.22Z" transform="translate(-5.72 -6.34)"/><path d="M28.53,42l.46.11.46.12.53.14c.18.05.37.08.53.14a1.57,1.57,0,0,1,.43.21l.17.11.12.1.1.09,0,0H31l-.2,0a1.74,1.74,0,0,1-.46-.12c-.17-.06-.33-.16-.5-.23l-.5-.23-.43-.21-.42-.22Z" transform="translate(-5.72 -6.34)"/><path d="M27.53,45.7l.47,0,.48,0,.54,0c.19,0,.38,0,.55.05A2.53,2.53,0,0,1,30,46l.18.08.14.08.11.07v0l-.13,0-.15,0-.2,0a2.75,2.75,0,0,1-.48,0c-.17,0-.35-.11-.53-.15L28.43,46,28,45.88l-.45-.14Z" transform="translate(-5.72 -6.34)"/><path d="M28.53,42l.46.11.46.12.53.14c.18.05.37.08.53.14a1.57,1.57,0,0,1,.43.21l.17.11.12.1.1.09,0,0H31l-.2,0a1.74,1.74,0,0,1-.46-.12c-.17-.06-.33-.16-.5-.23l-.5-.23-.43-.21-.42-.22Z" transform="translate(-5.72 -6.34)"/><path d="M44.93,82.86l.07-.25h2.4l-.07.25h0a.85.85,0,0,0-.6.16,1.53,1.53,0,0,0-.22.8L46.15,87l2.23-3.45a.71.71,0,0,0,0-.14.43.43,0,0,0-.14-.36,1.23,1.23,0,0,0-.62-.16h-.05l.06-.25h2.59l-.08.25h0a2,2,0,0,0-.57.07.38.38,0,0,0-.16.15.93.93,0,0,0-.12.36s0,.43-.11,1.06S49,85.94,48.89,87l1.85-2.81a5,5,0,0,0,.39-.67.78.78,0,0,0,.08-.32.26.26,0,0,0-.09-.19.61.61,0,0,0-.35-.12h-.05l.05-.25H52.7l-.07.25h0a.86.86,0,0,0-.41.12,1.63,1.63,0,0,0-.43.37c-.09.11-.29.4-.6.86L48.06,89h-.25l.49-4.64-3,4.64h-.23v0l.53-5.14c0-.19,0-.34,0-.44A.46.46,0,0,0,45.5,83a.88.88,0,0,0-.52-.14Z" transform="translate(-5.72 -6.34)"/><path d="M51.44,11.66l.36-1.4H47.46l0,.08h0a.82.82,0,0,1,.49.11.37.37,0,0,1,.14.3,3.11,3.11,0,0,1-.13.7L46.9,15.17a3.33,3.33,0,0,1-.3.79.66.66,0,0,1-.28.23,1.26,1.26,0,0,1-.47.06l0,.09H50.5l.55-1.63H51a2.72,2.72,0,0,1-1,1.08,2.78,2.78,0,0,1-1.45.32H48a.72.72,0,0,1-.41-.07.3.3,0,0,1-.13-.24,1.63,1.63,0,0,1,.08-.46l.6-2.07h.63a2,2,0,0,1,.6.05.5.5,0,0,1,.23.2.93.93,0,0,1,0,.77h.09l.61-2.15h-.08a1.36,1.36,0,0,1-.48.69,1.67,1.67,0,0,1-.92.2h-.64L49,10.5h.81a3.49,3.49,0,0,1,1,.09,1.11,1.11,0,0,1,.47.33.76.76,0,0,1,.13.44,1.89,1.89,0,0,1,0,.3Z" transform="translate(-5.72 -6.34)"/><path d="M83.06,51.77a.84.84,0,0,1,.31.07,6.46,6.46,0,0,0,.75.24,2.57,2.57,0,0,0,.5.05,2.1,2.1,0,0,0,1-.24,1.52,1.52,0,0,0,.69-.66,1.78,1.78,0,0,0,.24-.89,1.59,1.59,0,0,0-.19-.76,4.84,4.84,0,0,0-.87-1,7,7,0,0,1-.87-.95,1.14,1.14,0,0,1-.2-.63.9.9,0,0,1,.31-.68,1.13,1.13,0,0,1,.8-.28,1.39,1.39,0,0,1,1,.36,1.24,1.24,0,0,1,.38.93c0,.1,0,.24,0,.4h.07l.46-2h-.1a.89.89,0,0,1-.22.28.44.44,0,0,1-.25.08h-.16L86.38,46a4.13,4.13,0,0,0-.51-.18,1.74,1.74,0,0,0-.47,0,1.69,1.69,0,0,0-1.21.45,1.42,1.42,0,0,0-.47,1.07,1.47,1.47,0,0,0,.21.75,3.5,3.5,0,0,0,.57.67A8.43,8.43,0,0,1,85.65,50a1.33,1.33,0,0,1-.18,1.46,1.12,1.12,0,0,1-.93.38,1.45,1.45,0,0,1-1.07-.4,1.39,1.39,0,0,1-.41-1,4.81,4.81,0,0,1,0-.5H83l-.49,2.2h.09Q82.78,51.77,83.06,51.77Z" transform="translate(-5.72 -6.34)"/><path d="M13.86,52.09H14L15.4,47a2.81,2.81,0,0,1,.3-.76A.76.76,0,0,1,16,46a1,1,0,0,1,.43-.07h0l0-.08H14.62l0,.08h.05a.78.78,0,0,1,.47.1.35.35,0,0,1,.13.3,2.9,2.9,0,0,1-.12.7l-1.07,3.73-1.94-4.92H10.64l0,.08a1.76,1.76,0,0,1,.58.12,1,1,0,0,1,.4.39v0l-1.22,4.3a3.75,3.75,0,0,1-.3.79.8.8,0,0,1-.3.23,1.25,1.25,0,0,1-.48.06l0,.09h1.84l0-.09a1,1,0,0,1-.5-.12.35.35,0,0,1-.13-.3,2.93,2.93,0,0,1,.12-.68l1.13-4Z" transform="translate(-5.72 -6.34)"/></svg>