<svg id="Layer_1" data-name="Layer 1" xmlns="http://www.w3.org/2000/svg" xmlns:xlink="http://www.w3.org/1999/xlink" viewBox="0 0 228.87 56.39"><defs><style>.cls-1,.cls-10,.cls-4{fill:#eb5c2a;}.cls-1,.cls-3{stroke:#fff;}.cls-1,.cls-3,.cls-4,.cls-5,.cls-8,.cls-9{stroke-linecap:round;stroke-linejoin:round;}.cls-1{stroke-width:1.38px;}.cls-2,.cls-5{fill:#fff;}.cls-3,.cls-9{fill:none;}.cls-3{stroke-width:1.65px;}.cls-4,.cls-5,.cls-8,.cls-9{stroke:#231f20;}.cls-4{stroke-width:0.55px;}.cls-5{stroke-width:0.28px;}.cls-6{fill:#231f20;}.cls-7{opacity:0.47;fill:url(#radial-gradient);}.cls-8{fill:#408376;}.cls-8,.cls-9{stroke-width:0.41px;}</style><radialGradient id="radial-gradient" cx="107.37" cy="29.57" r="13.53" gradientTransform="matrix(0.99, 0.11, -0.07, 0.69, 2.85, -2.41)" gradientUnits="userSpaceOnUse"><stop offset="0" stop-color="#eef8fd"/><stop offset="1" stop-color="#2aabe3"/></radialGradient></defs><polygon class="cls-1" points="0.69 44.51 4.48 6.6 20.07 24.29 22.39 6.6 31.44 9.34 29.13 46.62 13.33 31.66 11.43 45.78 0.69 44.51"/><polygon class="cls-1" points="47.03 12.08 47.03 43.88 71.46 43.88 71.46 35.25 56.61 35.25 56.61 31.45 71.46 31.45 71.46 23.87 56.61 23.87 56.61 20.71 71.46 20.71 71.46 12.08 47.03 12.08"/><polygon class="cls-1" points="148.35 43.88 139.92 39.88 151.72 9.55 160.14 26.93 169.62 9.55 180.57 38.2 173.62 41.78 167.94 30.51 160.25 42.62 152.98 30.51 148.35 43.88"/><path class="cls-1" d="M208.17,5.55a20,20,0,1,0,20,20A20,20,0,0,0,208.17,5.55Zm0,27.8A7.8,7.8,0,1,1,216,25.56,7.79,7.79,0,0,1,208.17,33.35Z"/><path class="cls-2" d="M106.86,48.05l-.93-2.95.58,0,.38,1.34c.1.36.19.74.26,1h0c0-.32.09-.68.15-1.06l.23-1.38.58,0,.39,1.36c.09.35.18.68.24,1h0c0-.34.08-.68.14-1l.22-1.38.56,0-.61,3-.59,0-.4-1.39a9.16,9.16,0,0,1-.23-.94h0c0,.32-.07.62-.13,1L107.45,48Z"/><path class="cls-2" d="M97.57,49.39l.9.29L97.71,52h0c.18-.16.37-.29.54-.42l1.89-1.33,1.12.38-2.42,1.55.88,3.47-1.06-.35L98,52.53l-.62.39-.58,1.76-.9-.3Z"/><path class="cls-2" d="M102.93,50.85l-.33,3c-.11,1,.26,1.54.91,1.62s1.15-.36,1.26-1.38l.34-3,1,.11-.33,3c-.17,1.62-1.08,2.24-2.34,2.1s-1.92-.89-1.74-2.54l.33-3Z"/><path class="cls-2" d="M107.24,51.15l1-.08.37,4.44,2.15-.18.07.8-3.11.26Z"/><path class="cls-2" d="M115.74,54.83a3.52,3.52,0,0,1-1.25.56,2.49,2.49,0,0,1-3.26-1.9,2.65,2.65,0,0,1,2-3.39,3.1,3.1,0,0,1,1.29-.09v.8a2.44,2.44,0,0,0-1,.06,1.74,1.74,0,0,0-1.3,2.33,1.73,1.73,0,0,0,2.24,1.38,2.73,2.73,0,0,0,1-.45Z"/><path class="cls-2" d="M119.22,50.94l-1.79.84.65,1.4,2-.94.33.72-2.88,1.34-2.22-4.77,2.77-1.29.34.71-1.91.89.58,1.23,1.79-.84Z"/><path class="cls-3" d="M121.55,50.08A26.74,26.74,0,1,0,94.81,51.3"/><path class="cls-4" d="M126.74,28.48c-.1,1-1.65,1.86-1.95,3.78-.26,1.68,1.74,2.42,1,3.43a6.71,6.71,0,0,0-.67,1.53c-.33.75-1.07,1.1-1.3,1.92a11.44,11.44,0,0,0-.23,1.54,4.79,4.79,0,0,1-.32,1.12c-.14.33-.17.69-.31,1a1.28,1.28,0,0,1-1.65.69h0c-.45-.2-.68-2-1.37-3.55a6.23,6.23,0,0,0-1.58-2.37c-.37-.29-.79-.18-1.67.24A29,29,0,0,1,108,40.64c-4,.46-6.76-1-8.91-1.5a.94.94,0,0,0-1.15,1c.18,1.06.93,2,.78,2.36-.28.64-2.52,1.18-3.62,1.06a6.08,6.08,0,0,1-3-1.54l-.14-.16a3.35,3.35,0,0,1-.6-2.87c0-.12.07-.24.09-.35.15-.61,1.95-.79,1.52-1.64a.78.78,0,0,0-.57-.37,5.36,5.36,0,0,0-.7,0,2.64,2.64,0,0,1-1.3-.45,1.25,1.25,0,0,1-.48-.54,1.08,1.08,0,0,1,.19-1,2.78,2.78,0,0,1,2.37-1c.51,0,1.13.24,1.62.19,1.58-.18,1.46-1.8,1.38-3a12.32,12.32,0,0,1,.78-5.17,9.55,9.55,0,0,1,.9-1.81,15.06,15.06,0,0,1,2.06-2.52.91.91,0,0,0,.11-.6.9.9,0,0,0-.34-.57l-.2-.16-.33-.24a.9.9,0,0,1-.36-.8l0-.63a.9.9,0,0,0-.89-1,.88.88,0,0,1-.54-.18l-.08-.05a.91.91,0,0,1-.35-.84l.12-1c.1-.75-.6-1-1.15-1.17.57-.25,1.43-.47,1.39-1.25l-.55-1.26A1.22,1.22,0,0,1,97,10.6c1-.33,1.5,1,2.45,1.07.71,0,1.06-.45,1.62-.74.39-.2.86-.56,1.16,0a4.53,4.53,0,0,1,.25,2,1.59,1.59,0,0,1,0,.36.91.91,0,0,0,.5.95.89.89,0,0,1,.55.79v1.29a2.87,2.87,0,0,0,.32,1,.91.91,0,0,0,.95.49l1.2-.18h.45c.71,0,2.2,0,3.7.11a17.92,17.92,0,0,1,3.08.44,8.81,8.81,0,0,1,4.52,3.69,7.42,7.42,0,0,1,1.15,2.49c.23.85.44,1.72.73,2.56A3.53,3.53,0,0,0,122,28.48c.63,0,1.07-.68,1.48-1.08a2,2,0,0,1,2-.52A1.65,1.65,0,0,1,126.74,28.48Z"/><path class="cls-5" d="M110.06,17.67c-3.22.9-4.62,1-7.42,2.37a20.61,20.61,0,0,0-5.72,4.26c0,.06.26-.39.13-.43a16.09,16.09,0,0,1,2.15-2.51.91.91,0,0,0,.11-.6,19.62,19.62,0,0,1,3-1.84,34.9,34.9,0,0,1,4.09-1.36C107.07,17.56,108.56,17.56,110.06,17.67Z"/><ellipse class="cls-2" cx="102.11" cy="30.7" rx="3.53" ry="3.44"/><ellipse class="cls-6" cx="102.72" cy="31.22" rx="1.65" ry="1.61"/><ellipse class="cls-2" cx="112.65" cy="27.73" rx="3.49" ry="3.4"/><ellipse class="cls-6" cx="112.35" cy="28.4" rx="1.59" ry="1.55"/><path class="cls-7" d="M117.51,29.21a4.14,4.14,0,0,1-.33,2c-.81,1.41-3,.92-4.29.7a12.51,12.51,0,0,0-3.16-.31c-2.3.19-3.42,2.2-5.24,3.3a5.3,5.3,0,0,1-3.16.86,4.58,4.58,0,0,1-3.68-3.25,6.4,6.4,0,0,1-.2-3.82,5.05,5.05,0,0,1,3-2.45,5.78,5.78,0,0,1,2.8-.23,15.38,15.38,0,0,0,2.69.51,1.74,1.74,0,0,0,.47-.05,4.19,4.19,0,0,0,1.77-1.22,9.12,9.12,0,0,1,1.1-.94,7.94,7.94,0,0,1,4.48-.83,3.7,3.7,0,0,1,3.27,2,5.93,5.93,0,0,1,.44,2.25C117.46,28.09,117.51,28.64,117.51,29.21Z"/><path class="cls-8" d="M112.82,36.56c-.06-.75-.19-1.21-.95-1.49a3.32,3.32,0,0,0-1.82-.08,3.12,3.12,0,0,0-1.94,1.2c-.22.39-.21,1.5.25,1.77.29.18.87-.37,1.15-.44,1.12-.29,1.58,1.12,2.57,1.3a4.87,4.87,0,0,0,3-.79,9.09,9.09,0,0,0,3.4-3.37c2.31-4,2.12-10.06-1-13.61a14.87,14.87,0,0,0-2.93-2.22c-1.09-.73-2.85-1.06-3.84-1.93a4.93,4.93,0,0,1-1.54-2.26,12.36,12.36,0,0,1-.7-3.53c0-.38-.23-4-.48-4.08a2.88,2.88,0,0,0-.49-.11,4.3,4.3,0,0,0-.62,0,4.45,4.45,0,0,0-.72.1,1.2,1.2,0,0,0-.58.21,1.1,1.1,0,0,0-.18,1l.66,4.37a13.11,13.11,0,0,0,1.31,4.5,2.81,2.81,0,0,0,1.77,1.4,21.62,21.62,0,0,1,4.64,2.08A10.07,10.07,0,0,1,118,25.68a12.24,12.24,0,0,1-.09,7.24,6,6,0,0,1-1.65,2.78C115.21,36.63,114.14,36.6,112.82,36.56Z"/><path class="cls-8" d="M118.49,26a4.57,4.57,0,0,0-1.89-2.93,6.29,6.29,0,0,0-3.58-.89,8.91,8.91,0,0,0-4.4,1c-1,.57-1.38,1.56-2.61,1.81a9.74,9.74,0,0,1-3.43-.26,6,6,0,0,0-6.24,3.46A7.11,7.11,0,0,0,99,36.32a5.91,5.91,0,0,0,6.3-.41c1.61-1.26,2.69-3,4.93-3.1a33.24,33.24,0,0,1,4.33.53c1.25.09,3-.25,3.58-1.48a8.08,8.08,0,0,0,.51-5C118.62,26.54,118.56,26.26,118.49,26Zm-1,3.22a4.14,4.14,0,0,1-.33,2c-.81,1.41-3,.92-4.29.7a12.51,12.51,0,0,0-3.16-.31c-2.3.19-3.42,2.2-5.24,3.3a5.3,5.3,0,0,1-3.16.86,4.58,4.58,0,0,1-3.68-3.25,6.4,6.4,0,0,1-.2-3.82,5.05,5.05,0,0,1,3-2.45,5.78,5.78,0,0,1,2.8-.23,15.38,15.38,0,0,0,2.69.51,1.74,1.74,0,0,0,.47-.05,4.19,4.19,0,0,0,1.77-1.22,9.12,9.12,0,0,1,1.1-.94,7.94,7.94,0,0,1,4.48-.83,3.7,3.7,0,0,1,3.27,2,5.93,5.93,0,0,1,.44,2.25C117.46,28.09,117.51,28.64,117.51,29.21Z"/><ellipse class="cls-6" cx="106.72" cy="7.34" rx="1.32" ry="0.39" transform="translate(-0.25 7.25) rotate(-3.89)"/><path class="cls-9" d="M121.51,30.52a4.21,4.21,0,0,1,2.9.65"/><path class="cls-9" d="M120.93,33.14a3.47,3.47,0,0,1,2.46.52A7.48,7.48,0,0,1,125,35.22"/><path class="cls-9" d="M92.85,40.73A3.71,3.71,0,0,1,95.2,39.1"/><path class="cls-9" d="M96.63,40.08c.42.53,0,1.57-.32,2.05"/><path class="cls-9" d="M119.72,35A5,5,0,0,1,122,36a4.48,4.48,0,0,1,1.22,2.51"/><path class="cls-9" d="M95.9,39.56c.13.13-.7.93-.78,1A4.53,4.53,0,0,0,94,41.93"/><path class="cls-10" d="M108.14,8.53a3,3,0,0,1-1.65.52,2.79,2.79,0,0,1-.91-.16c0-.11,0-.22,0-.33a2.52,2.52,0,0,0,2.58-.35C108.12,8.31,108.13,8.41,108.14,8.53Z"/><path class="cls-10" d="M108.19,9a3.07,3.07,0,0,1-1.7.55,2.63,2.63,0,0,1-.83-.13c0-.11,0-.22,0-.32a2.54,2.54,0,0,0,2.52-.4h0Z"/><path class="cls-10" d="M108.23,9.46a3.17,3.17,0,0,1-1.74.58,2.51,2.51,0,0,1-.75-.12c0-.11,0-.21,0-.31a2.54,2.54,0,0,0,2.44-.43s.05,0,.08,0A3,3,0,0,0,108.23,9.46Z"/></svg>