<svg xmlns="http://www.w3.org/2000/svg" viewBox="0 0 399.85 301.79"><defs><style>.cls-1{fill:#fff;}.cls-2{fill:#1d1d1b;}.cls-3{font-size:47.38px;fill:#e6007e;font-family:MyriadPro-Regular, Myriad Pro;}</style></defs><g id="Layer_1" data-name="Layer 1"><path class="cls-1" d="M12.05,128.37V288.76a47.36,47.36,0,0,0,47.36,47.36H165.27a27.27,27.27,0,0,1,24.39,15.08L201.05,374a10.53,10.53,0,0,0,18.84,0l11.39-22.77a27.27,27.27,0,0,1,24.39-15.08H361.53a47.37,47.37,0,0,0,47.37-47.36V128.37A47.37,47.37,0,0,0,361.53,81H59.41A47.36,47.36,0,0,0,12.05,128.37Z" transform="translate(-10.55 -79.5)"/><path class="cls-2" d="M210.47,381.29a12,12,0,0,1-10.76-6.65l-11.39-22.77a25.62,25.62,0,0,0-23-14.25H59.41a48.92,48.92,0,0,1-48.86-48.87V128.37A48.92,48.92,0,0,1,59.41,79.5H361.53a48.92,48.92,0,0,1,48.87,48.87V288.75a48.92,48.92,0,0,1-48.87,48.87H255.67a25.64,25.64,0,0,0-23,14.25l-11.38,22.77A12,12,0,0,1,210.47,381.29ZM59.41,82.5a45.92,45.92,0,0,0-45.86,45.87V288.75a45.91,45.91,0,0,0,45.86,45.87H165.27A28.62,28.62,0,0,1,191,350.52l11.38,22.78a9,9,0,0,0,16.16,0l11.39-22.78a28.62,28.62,0,0,1,25.73-15.9H361.53a45.92,45.92,0,0,0,45.87-45.87V128.37A45.93,45.93,0,0,0,361.53,82.5Z" transform="translate(-10.55 -79.5)"/></g><g id="Layer_2" data-name="Layer 2"><text class="cls-3" transform="translate(75.56 110.95)">L</text></g></svg>