<svg xmlns="http://www.w3.org/2000/svg" viewBox="0 0 1190.55 841.89"><defs><style>.cls-1,.cls-2{fill:none;}.cls-1{stroke:#e20e18;stroke-miterlimit:10;stroke-width:2px;}</style></defs><line class="cls-1" x1="651.97" y1="640.11" x2="647.71" y2="699.27"/><line class="cls-1" x1="651.97" y1="640.11" x2="686.8" y2="618.98"/><line class="cls-1" x1="686.8" y1="618.98" x2="722.75" y2="599.61"/><line class="cls-1" x1="722.75" y1="599.61" x2="772.52" y2="571.56"/><path class="cls-1" d="M790.89,594"/><path class="cls-1" d="M772.52,571.56"/><line class="cls-1" x1="790.89" y1="593.96" x2="894.74" y2="584.31"/><polyline class="cls-1" points="790.89 593.96 790.89 640.11 649.84 669.69"/><line class="cls-1" x1="894.74" y1="584.31" x2="1141.53" y2="551.03"/><line class="cls-1" x1="1141.53" y1="551.03" x2="981.49" y2="408.6"/><line class="cls-1" x1="981.49" y1="408.6" x2="1072.11" y2="338.06"/><line class="cls-1" x1="1072.11" y1="338.06" x2="1151.99" y2="341.93"/><line class="cls-1" x1="1072.11" y1="338.06" x2="1154.42" y2="213.41"/><line class="cls-1" x1="1154.42" y1="213.41" x2="804.96" y2="251.65"/><line class="cls-1" x1="804.96" y1="251.65" x2="981.49" y2="408.6"/><line class="cls-1" x1="804.96" y1="251.65" x2="693.69" y2="424.11"/><line class="cls-1" x1="804.96" y1="251.65" x2="624.6" y2="256"/><line class="cls-1" x1="624.6" y1="256" x2="634.6" y2="388.91"/><line class="cls-1" x1="634.6" y1="388.91" x2="693.69" y2="424.11"/><line class="cls-1" x1="693.69" y1="424.11" x2="670.53" y2="541.74"/><line class="cls-1" x1="670.53" y1="541.74" x2="666.49" y2="560.12"/><line class="cls-1" x1="662.73" y1="578.46" x2="581.79" y2="599.39"/><line class="cls-1" x1="581.79" y1="599.39" x2="495.46" y2="613.62"/><line class="cls-1" x1="495.46" y1="613.62" x2="395.94" y2="633.54"/><line class="cls-1" x1="395.94" y1="633.54" x2="395.94" y2="738.14"/><line class="cls-1" x1="666.49" y1="560.12" x2="651.97" y2="640.11"/><line class="cls-1" x1="981.49" y1="408.6" x2="790.89" y2="593.96"/><line class="cls-1" x1="790.89" y1="593.96" x2="749.13" y2="540.04"/><line class="cls-1" x1="390.25" y1="464.46" x2="395.94" y2="633.54"/><line class="cls-1" x1="390.25" y1="464.46" x2="378.99" y2="439.96"/><line class="cls-1" x1="693.69" y1="424.11" x2="587.55" y2="458.21"/><line class="cls-1" x1="587.55" y1="458.21" x2="670.53" y2="541.74"/><line class="cls-1" x1="587.55" y1="458.21" x2="390.25" y2="464.46"/><line class="cls-1" x1="378.99" y1="439.96" x2="217.27" y2="386.55"/><line class="cls-1" x1="378.99" y1="439.96" x2="383.87" y2="392.28"/><line class="cls-1" x1="217.27" y1="386.55" x2="68" y2="399.02"/><line class="cls-1" x1="217.27" y1="386.55" x2="418.33" y2="225.85"/><line class="cls-1" x1="418.33" y1="225.85" x2="383.87" y2="392.28"/><line class="cls-1" x1="418.33" y1="225.85" x2="624.6" y2="256"/><line class="cls-1" x1="651.97" y1="640.11" x2="616.81" y2="662.09"/><line class="cls-1" x1="616.81" y1="662.09" x2="395.7" y2="662.09"/><line class="cls-1" x1="749.13" y1="540.04" x2="662.73" y2="578.46"/><line class="cls-1" x1="587.55" y1="458.21" x2="495.46" y2="613.62"/><rect class="cls-2" width="1190.55" height="841.89"/><line class="cls-1" x1="217.27" y1="386.55" x2="23.94" y2="694.34"/></svg>