<?xml version="1.0" encoding="UTF-8"?>
<svg id="Layer_1" data-name="Layer 1" xmlns="http://www.w3.org/2000/svg" version="1.1" viewBox="0 0 1190.6 841.9">
  <defs>
    <style>
      .cls-1 {
        fill: none;
        stroke: #e20e18;
        stroke-miterlimit: 10;
        stroke-width: 2px;
      }
    </style>
  </defs>
  <line class="cls-1" x1="652" y1="640.1" x2="647.7" y2="699.3"/>
  <line class="cls-1" x1="652" y1="640.1" x2="686.8" y2="619"/>
  <line class="cls-1" x1="686.8" y1="619" x2="722.8" y2="599.6"/>
  <line class="cls-1" x1="722.8" y1="599.6" x2="772.5" y2="571.6"/>
  <line class="cls-1" x1="790.9" y1="594" x2="894.7" y2="584.3"/>
  <polyline class="cls-1" points="790.9 594 790.9 640.1 649.8 669.7"/>
  <line class="cls-1" x1="894.7" y1="584.3" x2="1141.5" y2="551"/>
  <line class="cls-1" x1="1141.5" y1="551" x2="981.5" y2="408.6"/>
  <line class="cls-1" x1="981.5" y1="408.6" x2="1072.1" y2="338.1"/>
  <line class="cls-1" x1="1072.1" y1="338.1" x2="1152" y2="341.9"/>
  <line class="cls-1" x1="1072.1" y1="338.1" x2="1154.4" y2="213.4"/>
  <path class="cls-1" d="M805,251.7"/>
  <path class="cls-1" d="M1154.4,213.4"/>
  <line class="cls-1" x1="1154.4" y1="213.4" x2="805" y2="251.7"/>
  <path class="cls-1" d="M1152,144.6"/>
  <line class="cls-1" x1="1152" y1="144.6" x2="1154.4" y2="213.4"/>
  <path class="cls-1" d="M866.4,144.6"/>
  <line class="cls-1" x1="866.4" y1="144.6" x2="1152" y2="144.6"/>
  <path class="cls-1" d="M805,251.7"/>
  <line class="cls-1" x1="805" y1="251.7" x2="866.4" y2="144.6"/>
  <line class="cls-1" x1="805" y1="251.7" x2="981.5" y2="408.6"/>
  <line class="cls-1" x1="805" y1="251.7" x2="693.7" y2="424.1"/>
  <line class="cls-1" x1="842.8" y1="185.7" x2="624.6" y2="256"/>
  <line class="cls-1" x1="624.6" y1="256" x2="634.6" y2="388.9"/>
  <line class="cls-1" x1="634.6" y1="388.9" x2="693.7" y2="424.1"/>
  <line class="cls-1" x1="693.7" y1="424.1" x2="670.5" y2="541.7"/>
  <line class="cls-1" x1="670.5" y1="541.7" x2="666.5" y2="560.1"/>
  <line class="cls-1" x1="662.7" y1="578.5" x2="581.8" y2="599.4"/>
  <line class="cls-1" x1="581.8" y1="599.4" x2="495.5" y2="613.6"/>
  <line class="cls-1" x1="495.5" y1="613.6" x2="395.9" y2="633.5"/>
  <line class="cls-1" x1="395.9" y1="633.5" x2="395.9" y2="738.1"/>
  <line class="cls-1" x1="666.5" y1="560.1" x2="652" y2="640.1"/>
  <line class="cls-1" x1="981.5" y1="408.6" x2="790.9" y2="594"/>
  <line class="cls-1" x1="790.9" y1="594" x2="749.1" y2="540"/>
  <line class="cls-1" x1="390.2" y1="464.5" x2="395.9" y2="633.5"/>
  <line class="cls-1" x1="390.2" y1="464.5" x2="379" y2="440"/>
  <line class="cls-1" x1="693.7" y1="424.1" x2="587.5" y2="458.2"/>
  <line class="cls-1" x1="662.7" y1="578.5" x2="749.1" y2="540"/>
  <line class="cls-1" x1="749.1" y1="540" x2="693.7" y2="424.1"/>
  <line class="cls-1" x1="587.5" y1="458.2" x2="670.5" y2="541.7"/>
  <line class="cls-1" x1="587.5" y1="458.2" x2="390.2" y2="464.5"/>
  <line class="cls-1" x1="379" y1="440" x2="217.3" y2="386.5"/>
  <line class="cls-1" x1="379" y1="440" x2="383.9" y2="392.3"/>
  <line class="cls-1" x1="68" y1="399" x2="60.2" y2="567.1"/>
  <path class="cls-1" d="M217.3,386.5"/>
  <line class="cls-1" x1="217.3" y1="386.5" x2="68" y2="399"/>
  <line class="cls-1" x1="217.3" y1="386.5" x2="418.3" y2="225.9"/>
  <line class="cls-1" x1="418.3" y1="225.9" x2="383.9" y2="392.3"/>
  <line class="cls-1" x1="418.3" y1="225.9" x2="624.6" y2="256"/>
  <line class="cls-1" x1="652" y1="640.1" x2="616.8" y2="662.1"/>
  <line class="cls-1" x1="616.8" y1="662.1" x2="395.7" y2="662.1"/>
  <line class="cls-1" x1="587.5" y1="458.2" x2="495.5" y2="613.6"/>
  <line class="cls-1" x1="217.3" y1="386.5" x2="23.9" y2="694.3"/>
</svg>